<svg width="260" height="73" viewBox="0 0 260 73" fill="none" xmlns="http://www.w3.org/2000/svg">
<path d="M66.9821 5.1713C54.2109 3.16079 43.6706 6.81892 36.4504 15.6539C32.3117 20.6836 30.5127 26.9954 31.8018 32.2206C32.1879 33.8383 32.9001 35.3601 33.8949 36.6928C34.8897 38.0256 36.1461 39.1412 37.5871 39.9714C38.3276 33.4495 40.9714 27.2898 45.1889 22.2603C45.2575 22.1647 45.3448 22.0841 45.4456 22.0235C45.5463 21.9628 45.6584 21.9233 45.775 21.9074C45.8915 21.8915 46.0101 21.8996 46.1234 21.931C46.2367 21.9625 46.3425 22.0168 46.4341 22.0905C46.5258 22.1642 46.6015 22.2558 46.6565 22.3597C46.7116 22.4637 46.7449 22.5778 46.7544 22.695C46.7638 22.8122 46.7493 22.9302 46.7117 23.0416C46.6741 23.1531 46.6141 23.2557 46.5355 23.3432C38.3835 33.3898 38.9394 33.1487 40.1389 41.7836C41.2637 42.2655 41.8067 43.1405 42.0695 43.0367C42.3322 42.9329 41.5177 43.4128 42.5043 43.0367C43.8001 44.0356 45.0576 43.719 44.6382 43.7114C53.8228 44.0254 62.6367 33.1175 64.9595 25.9251C65.8219 22.8988 66.1061 19.7371 65.7974 16.6055C65.6942 13.1798 65.5814 9.86977 67.6121 6.55953C67.6921 6.44228 67.742 6.30717 67.7574 6.1661C67.7728 6.02503 67.7533 5.88233 67.7006 5.75057C67.6479 5.61881 67.5636 5.50204 67.4551 5.41055C67.3466 5.31906 67.2173 5.25565 67.0785 5.22592L66.9821 5.1713Z" fill="#88C000"/>
<g clip-path="url(#clip0)">
<path d="M0.499202 29.0845C13.8528 21.1389 27.248 20.5149 39.2496 27.1501C46.1136 30.9149 50.9392 37.1549 51.8336 43.5613C52.1251 45.5388 52.0097 47.5549 51.4947 49.4863C50.9797 51.4177 50.0758 53.2235 48.8384 54.7933C45.1002 47.8462 39.3998 42.1531 32.448 38.4237C32.3288 38.3477 32.1954 38.2968 32.0558 38.2741C31.9163 38.2514 31.7736 38.2573 31.6364 38.2916C31.4993 38.3259 31.3706 38.3878 31.2582 38.4735C31.1457 38.5593 31.052 38.667 30.9826 38.7902C30.9132 38.9134 30.8697 39.0494 30.8547 39.19C30.8396 39.3305 30.8534 39.4727 30.8952 39.6078C30.9369 39.7428 31.0058 39.868 31.0975 39.9755C31.1893 40.0831 31.302 40.1708 31.4288 40.2333C45.0112 47.8045 49.4416 59.1821 51.9584 69.3533C51.9599 69.5786 51.8868 69.798 51.7504 69.9773C51.3552 70.4765 50.6688 70.3725 49.4 70.3933H47.1536C44.8864 70.3933 44.8656 70.2477 44.72 69.5197C44.0909 66.3841 43.1142 63.3285 41.808 60.4093C31.6992 64.8605 17.8256 58.3293 12.0224 51.3405C9.70891 48.3485 7.98007 44.9473 6.9264 41.3149C5.512 37.4461 4.16 33.7021 0.416004 30.9149C0.274436 30.8198 0.158439 30.6913 0.0782337 30.5408C-0.00197119 30.3902 -0.043923 30.2223 -0.043923 30.0517C-0.043923 29.8811 -0.00197119 29.7132 0.0782337 29.5627C0.158439 29.4121 0.274436 29.2836 0.416004 29.1885L0.499202 29.0845Z" fill="#88C000"/>
</g>
<path d="M75.688 53.2V63H74.974V58.338H68.422V63H67.708V53.2H68.422V57.708H74.974V53.2H75.688ZM81.7423 63.056C81.0517 63.056 80.4263 62.8973 79.8663 62.58C79.3157 62.2627 78.8817 61.824 78.5643 61.264C78.247 60.6947 78.0883 60.0553 78.0883 59.346C78.0883 58.6367 78.247 58.002 78.5643 57.442C78.8817 56.8727 79.3157 56.4293 79.8663 56.112C80.4263 55.7947 81.0517 55.636 81.7423 55.636C82.433 55.636 83.0537 55.7947 83.6043 56.112C84.1643 56.4293 84.603 56.8727 84.9203 57.442C85.2377 58.002 85.3963 58.6367 85.3963 59.346C85.3963 60.0553 85.2377 60.6947 84.9203 61.264C84.603 61.824 84.1643 62.2627 83.6043 62.58C83.0537 62.8973 82.433 63.056 81.7423 63.056ZM81.7423 62.426C82.3023 62.426 82.8017 62.2953 83.2403 62.034C83.6883 61.7727 84.0383 61.4087 84.2903 60.942C84.5517 60.4753 84.6823 59.9433 84.6823 59.346C84.6823 58.7487 84.5517 58.2167 84.2903 57.75C84.0383 57.2833 83.6883 56.9193 83.2403 56.658C82.8017 56.3967 82.3023 56.266 81.7423 56.266C81.1823 56.266 80.6783 56.3967 80.2303 56.658C79.7917 56.9193 79.4417 57.2833 79.1803 57.75C78.9283 58.2167 78.8023 58.7487 78.8023 59.346C78.8023 59.9433 78.9283 60.4753 79.1803 60.942C79.4417 61.4087 79.7917 61.7727 80.2303 62.034C80.6783 62.2953 81.1823 62.426 81.7423 62.426ZM88.24 57.288C88.464 56.756 88.814 56.35 89.29 56.07C89.766 55.7807 90.3447 55.636 91.026 55.636V56.322L90.858 56.308C90.046 56.308 89.4113 56.5647 88.954 57.078C88.4967 57.582 88.268 58.2867 88.268 59.192V63H87.568V55.692H88.24V57.288ZM96.9088 62.538C96.7315 62.706 96.5075 62.8367 96.2368 62.93C95.9755 63.014 95.7002 63.056 95.4108 63.056C94.7762 63.056 94.2862 62.8833 93.9408 62.538C93.5955 62.1833 93.4228 61.6933 93.4228 61.068V56.294H92.0788V55.692H93.4228V54.096H94.1228V55.692H96.4468V56.294H94.1228V60.998C94.1228 61.474 94.2348 61.838 94.4588 62.09C94.6922 62.3327 95.0328 62.454 95.4808 62.454C95.9382 62.454 96.3162 62.3187 96.6148 62.048L96.9088 62.538ZM101.325 55.636C102.23 55.636 102.926 55.8693 103.411 56.336C103.896 56.7933 104.139 57.47 104.139 58.366V63H103.467V61.698C103.234 62.1273 102.893 62.4633 102.445 62.706C101.997 62.9393 101.46 63.056 100.835 63.056C100.023 63.056 99.379 62.8647 98.903 62.482C98.4363 62.0993 98.203 61.5953 98.203 60.97C98.203 60.3633 98.4176 59.8733 98.847 59.5C99.2856 59.1173 99.981 58.926 100.933 58.926H103.439V58.338C103.439 57.6567 103.252 57.1387 102.879 56.784C102.515 56.4293 101.978 56.252 101.269 56.252C100.784 56.252 100.317 56.336 99.869 56.504C99.4303 56.672 99.057 56.896 98.749 57.176L98.399 56.672C98.763 56.3453 99.2016 56.0933 99.715 55.916C100.228 55.7293 100.765 55.636 101.325 55.636ZM100.933 62.482C101.54 62.482 102.053 62.342 102.473 62.062C102.902 61.782 103.224 61.376 103.439 60.844V59.472H100.947C100.228 59.472 99.7056 59.6027 99.379 59.864C99.0616 60.1253 98.903 60.4847 98.903 60.942C98.903 61.418 99.0803 61.796 99.435 62.076C99.7896 62.3467 100.289 62.482 100.933 62.482ZM116.793 59.514H110.507C110.525 60.0833 110.67 60.592 110.941 61.04C111.211 61.4787 111.575 61.8193 112.033 62.062C112.499 62.3047 113.022 62.426 113.601 62.426C114.077 62.426 114.515 62.342 114.917 62.174C115.327 61.9967 115.668 61.74 115.939 61.404L116.345 61.866C116.027 62.2487 115.626 62.5427 115.141 62.748C114.665 62.9533 114.147 63.056 113.587 63.056C112.859 63.056 112.21 62.8973 111.641 62.58C111.071 62.2627 110.623 61.824 110.297 61.264C109.979 60.704 109.821 60.0647 109.821 59.346C109.821 58.6367 109.97 58.002 110.269 57.442C110.577 56.8727 110.997 56.4293 111.529 56.112C112.061 55.7947 112.658 55.636 113.321 55.636C113.983 55.636 114.576 55.7947 115.099 56.112C115.631 56.42 116.046 56.854 116.345 57.414C116.653 57.974 116.807 58.6087 116.807 59.318L116.793 59.514ZM113.321 56.252C112.807 56.252 112.345 56.3687 111.935 56.602C111.524 56.826 111.193 57.148 110.941 57.568C110.698 57.9787 110.558 58.4453 110.521 58.968H116.121C116.093 58.4453 115.953 57.9787 115.701 57.568C115.449 57.1573 115.117 56.8353 114.707 56.602C114.296 56.3687 113.834 56.252 113.321 56.252ZM128.072 55.636C128.978 55.636 129.687 55.902 130.2 56.434C130.723 56.966 130.984 57.7313 130.984 58.73V63H130.284V58.786C130.284 57.9647 130.084 57.3393 129.682 56.91C129.281 56.4807 128.721 56.266 128.002 56.266C127.181 56.266 126.528 56.5227 126.042 57.036C125.566 57.5493 125.328 58.24 125.328 59.108V63H124.628V58.786C124.628 57.9647 124.428 57.3393 124.026 56.91C123.625 56.4807 123.065 56.266 122.346 56.266C121.525 56.266 120.872 56.5227 120.386 57.036C119.91 57.5493 119.672 58.24 119.672 59.108V63H118.972V55.692H119.644V57.26C119.887 56.7467 120.246 56.35 120.722 56.07C121.208 55.7807 121.782 55.636 122.444 55.636C123.107 55.636 123.667 55.7853 124.124 56.084C124.591 56.3827 124.922 56.8213 125.118 57.4C125.361 56.8587 125.739 56.4293 126.252 56.112C126.775 55.7947 127.382 55.636 128.072 55.636ZM140.368 63.056C139.659 63.056 139.024 62.8973 138.464 62.58C137.904 62.2627 137.466 61.824 137.148 61.264C136.831 60.6947 136.672 60.0553 136.672 59.346C136.672 58.6273 136.831 57.988 137.148 57.428C137.466 56.8587 137.904 56.42 138.464 56.112C139.024 55.7947 139.659 55.636 140.368 55.636C140.956 55.636 141.488 55.7527 141.964 55.986C142.45 56.21 142.842 56.5413 143.14 56.98L142.622 57.358C142.361 56.994 142.034 56.7233 141.642 56.546C141.26 56.3593 140.835 56.266 140.368 56.266C139.799 56.266 139.286 56.3967 138.828 56.658C138.38 56.91 138.026 57.2693 137.764 57.736C137.512 58.2027 137.386 58.7393 137.386 59.346C137.386 59.9527 137.512 60.4893 137.764 60.956C138.026 61.4227 138.38 61.7867 138.828 62.048C139.286 62.3 139.799 62.426 140.368 62.426C140.835 62.426 141.26 62.3373 141.642 62.16C142.034 61.9733 142.361 61.698 142.622 61.334L143.14 61.712C142.842 62.1507 142.45 62.4867 141.964 62.72C141.488 62.944 140.956 63.056 140.368 63.056ZM147.7 55.636C148.605 55.636 149.301 55.8693 149.786 56.336C150.271 56.7933 150.514 57.47 150.514 58.366V63H149.842V61.698C149.609 62.1273 149.268 62.4633 148.82 62.706C148.372 62.9393 147.835 63.056 147.21 63.056C146.398 63.056 145.754 62.8647 145.278 62.482C144.811 62.0993 144.578 61.5953 144.578 60.97C144.578 60.3633 144.793 59.8733 145.222 59.5C145.661 59.1173 146.356 58.926 147.308 58.926H149.814V58.338C149.814 57.6567 149.627 57.1387 149.254 56.784C148.89 56.4293 148.353 56.252 147.644 56.252C147.159 56.252 146.692 56.336 146.244 56.504C145.805 56.672 145.432 56.896 145.124 57.176L144.774 56.672C145.138 56.3453 145.577 56.0933 146.09 55.916C146.603 55.7293 147.14 55.636 147.7 55.636ZM147.308 62.482C147.915 62.482 148.428 62.342 148.848 62.062C149.277 61.782 149.599 61.376 149.814 60.844V59.472H147.322C146.603 59.472 146.081 59.6027 145.754 59.864C145.437 60.1253 145.278 60.4847 145.278 60.942C145.278 61.418 145.455 61.796 145.81 62.076C146.165 62.3467 146.664 62.482 147.308 62.482ZM155.246 63.056C154.658 63.056 154.098 62.9673 153.566 62.79C153.034 62.6127 152.619 62.3887 152.32 62.118L152.642 61.558C152.941 61.81 153.323 62.02 153.79 62.188C154.266 62.356 154.761 62.44 155.274 62.44C156.011 62.44 156.553 62.3187 156.898 62.076C157.253 61.8333 157.43 61.4973 157.43 61.068C157.43 60.76 157.332 60.5173 157.136 60.34C156.949 60.1627 156.716 60.032 156.436 59.948C156.156 59.864 155.769 59.7753 155.274 59.682C154.695 59.5793 154.229 59.4673 153.874 59.346C153.519 59.2247 153.216 59.0287 152.964 58.758C152.712 58.4873 152.586 58.114 152.586 57.638C152.586 57.0593 152.824 56.5833 153.3 56.21C153.785 55.8273 154.471 55.636 155.358 55.636C155.825 55.636 156.287 55.7013 156.744 55.832C157.201 55.9627 157.575 56.1353 157.864 56.35L157.542 56.91C157.243 56.6953 156.903 56.532 156.52 56.42C156.137 56.308 155.745 56.252 155.344 56.252C154.663 56.252 154.149 56.378 153.804 56.63C153.459 56.882 153.286 57.2133 153.286 57.624C153.286 57.9507 153.384 58.2073 153.58 58.394C153.776 58.5713 154.014 58.7067 154.294 58.8C154.583 58.884 154.985 58.9773 155.498 59.08C156.067 59.1827 156.525 59.2947 156.87 59.416C157.225 59.528 157.523 59.7147 157.766 59.976C158.009 60.2373 158.13 60.5967 158.13 61.054C158.13 61.6607 157.878 62.146 157.374 62.51C156.87 62.874 156.161 63.056 155.246 63.056ZM162.548 55.636C163.453 55.636 164.148 55.8693 164.634 56.336C165.119 56.7933 165.362 57.47 165.362 58.366V63H164.69V61.698C164.456 62.1273 164.116 62.4633 163.668 62.706C163.22 62.9393 162.683 63.056 162.058 63.056C161.246 63.056 160.602 62.8647 160.126 62.482C159.659 62.0993 159.426 61.5953 159.426 60.97C159.426 60.3633 159.64 59.8733 160.07 59.5C160.508 59.1173 161.204 58.926 162.156 58.926H164.662V58.338C164.662 57.6567 164.475 57.1387 164.102 56.784C163.738 56.4293 163.201 56.252 162.492 56.252C162.006 56.252 161.54 56.336 161.092 56.504C160.653 56.672 160.28 56.896 159.972 57.176L159.622 56.672C159.986 56.3453 160.424 56.0933 160.938 55.916C161.451 55.7293 161.988 55.636 162.548 55.636ZM162.156 62.482C162.762 62.482 163.276 62.342 163.696 62.062C164.125 61.782 164.447 61.376 164.662 60.844V59.472H162.17C161.451 59.472 160.928 59.6027 160.602 59.864C160.284 60.1253 160.126 60.4847 160.126 60.942C160.126 61.418 160.303 61.796 160.658 62.076C161.012 62.3467 161.512 62.482 162.156 62.482Z" fill="#3D3D3D"/>
<path d="M84.9258 41.0078C84.9258 42.1537 84.9518 43.0586 85.0039 43.7227C85.069 44.3867 85.1602 44.888 85.2773 45.2266C85.4076 45.5651 85.5703 45.78 85.7656 45.8711C85.9609 45.9623 86.1888 46.0078 86.4492 46.0078C86.8008 46.0078 87.1654 45.8972 87.543 45.6758C87.9206 45.4544 88.2917 45.168 88.6562 44.8164C89.0208 44.4649 89.3659 44.0742 89.6914 43.6445C90.0299 43.2149 90.3359 42.7982 90.6094 42.3945C90.8958 41.9779 91.1367 41.5938 91.332 41.2422C91.5404 40.8776 91.6966 40.5977 91.8008 40.4024L92.4062 39.1914L93.207 39.7969L92.6016 41.0078C92.4974 41.2031 92.3281 41.5222 92.0938 41.9649C91.8594 42.3945 91.5664 42.8763 91.2148 43.4102C90.8633 43.931 90.4661 44.4779 90.0234 45.0508C89.5807 45.6107 89.1055 46.125 88.5977 46.5938C88.0898 47.0625 87.556 47.4466 86.9961 47.7461C86.4362 48.0456 85.8633 48.1953 85.2773 48.1953C84.7435 48.1953 84.2682 48.1042 83.8516 47.9219C83.4349 47.7396 83.0833 47.4206 82.7969 46.9649C82.5104 46.4961 82.2891 45.8646 82.1328 45.0703C81.9896 44.263 81.918 43.2409 81.918 42.0039C81.918 41.5222 81.9245 41.0664 81.9375 40.6367C81.9635 40.194 81.9961 39.6602 82.0352 39.0352C81.3711 40.3242 80.6029 41.5677 79.7305 42.7656C78.8711 43.9636 77.9466 45.0248 76.957 45.9492C75.9674 46.8737 74.9323 47.6094 73.8516 48.1563C72.7839 48.7162 71.7031 48.9961 70.6094 48.9961C69.9193 48.9961 69.2617 48.8724 68.6367 48.625C68.0117 48.3776 67.4583 48 66.9766 47.4922C66.4948 46.9714 66.1107 46.3073 65.8242 45.5C65.5378 44.6927 65.3945 43.7292 65.3945 42.6094C65.3945 40.8125 65.5964 39.0482 66 37.3164C66.3906 35.5847 66.9375 33.9115 67.6406 32.2969C68.3438 30.6693 69.1706 29.1198 70.1211 27.6485C71.0716 26.1641 72.0938 24.7904 73.1875 23.5274C74.2812 22.2643 75.4271 21.125 76.625 20.1094C77.8229 19.0807 79.0208 18.2018 80.2188 17.4727C81.4167 16.7435 82.582 16.1836 83.7148 15.793C84.8607 15.4024 85.9284 15.207 86.918 15.207C88.0117 15.207 88.8841 15.487 89.5352 16.0469C90.1862 16.5938 90.5117 17.375 90.5117 18.3906C90.5117 19.0677 90.375 19.7318 90.1016 20.3828C89.8411 21.0208 89.4896 21.6393 89.0469 22.2383C88.6172 22.8242 88.1224 23.3841 87.5625 23.918C87.0156 24.4388 86.4622 24.9141 85.9023 25.3438C85.3424 25.7604 84.7956 26.1315 84.2617 26.457C83.7409 26.7695 83.2917 27.0169 82.9141 27.1992L82.3281 26.3985C82.6536 26.2292 83.0247 25.9948 83.4414 25.6953C83.8711 25.3958 84.3008 25.0443 84.7305 24.6406C85.1602 24.237 85.5768 23.7943 85.9805 23.3125C86.3971 22.8177 86.7682 22.3034 87.0938 21.7695C87.4193 21.2227 87.6797 20.6628 87.875 20.0899C88.0703 19.5039 88.168 18.9245 88.168 18.3516C88.168 17.7917 88.0182 17.3294 87.7188 16.9649C87.4323 16.5873 86.9635 16.3985 86.3125 16.3985C85.5443 16.3985 84.7109 16.6003 83.8125 17.0039C82.9141 17.3945 81.9896 17.9544 81.0391 18.6836C80.0885 19.4128 79.1315 20.2852 78.168 21.3008C77.2174 22.3034 76.2995 23.4167 75.4141 24.6406C74.5286 25.8516 73.7018 27.1537 72.9336 28.5469C72.1784 29.9271 71.5143 31.3659 70.9414 32.8633C70.3815 34.3477 69.9388 35.8646 69.6133 37.4141C69.2878 38.9505 69.125 40.4805 69.125 42.0039C69.125 42.707 69.1771 43.3581 69.2812 43.957C69.3854 44.543 69.5547 45.0508 69.7891 45.4805C70.0234 45.8972 70.3294 46.2227 70.707 46.457C71.0846 46.6914 71.5534 46.8086 72.1133 46.8086C72.8164 46.8086 73.5065 46.6524 74.1836 46.3399C74.8607 46.0143 75.5182 45.5781 76.1562 45.0313C76.7943 44.4844 77.4062 43.8464 77.9922 43.1172C78.5911 42.388 79.151 41.6068 79.6719 40.7735C80.1927 39.9401 80.6745 39.0873 81.1172 38.2149C81.5729 37.3294 81.9766 36.457 82.3281 35.5977C82.4193 34.6211 82.5234 33.6901 82.6406 32.8047C82.7578 31.9063 82.875 31.1055 82.9922 30.4024C83.1094 29.6992 83.2201 29.1198 83.3242 28.6641C83.4284 28.1953 83.5195 27.9089 83.5977 27.8047C83.6497 27.7136 83.7604 27.6094 83.9297 27.4922C84.099 27.375 84.2878 27.2708 84.4961 27.1797C84.7174 27.0755 84.9388 26.9909 85.1602 26.9258C85.3815 26.8477 85.5703 26.8086 85.7266 26.8086C86.1172 26.8086 86.3125 27.0039 86.3125 27.3945C86.3125 27.7591 86.2865 28.1823 86.2344 28.6641C86.1823 29.1458 86.1107 29.6472 86.0195 30.168C85.9284 30.6888 85.8177 31.2162 85.6875 31.75C85.5703 32.2708 85.4336 32.7526 85.2773 33.1953C85.1732 34.6146 85.0885 35.9818 85.0234 37.2969C84.9583 38.599 84.9258 39.836 84.9258 41.0078ZM116.43 25.832C116.729 25.6107 116.996 25.3438 117.23 25.0313C117.478 24.7188 117.686 24.3802 117.855 24.0156C118.025 23.6511 118.155 23.2669 118.246 22.8633C118.337 22.4597 118.383 22.0495 118.383 21.6328C118.383 21.0078 118.272 20.3893 118.051 19.7774C117.842 19.1524 117.497 18.5925 117.016 18.0977C116.547 17.5899 115.935 17.1797 115.18 16.8672C114.424 16.5547 113.507 16.3985 112.426 16.3985C111.228 16.3985 110.095 16.5938 109.027 16.9844C107.96 17.375 107.022 17.9024 106.215 18.5664C105.421 19.2305 104.789 19.9987 104.32 20.8711C103.852 21.7435 103.617 22.655 103.617 23.6055C103.617 24.6081 103.852 25.5 104.32 26.2813C104.802 27.0495 105.427 27.7526 106.195 28.3906C106.977 29.0156 107.862 29.5951 108.852 30.1289C109.841 30.6628 110.85 31.1901 111.879 31.711C112.908 32.2318 113.917 32.7787 114.906 33.3516C115.896 33.9115 116.775 34.543 117.543 35.2461C118.324 35.9492 118.949 36.737 119.418 37.6094C119.9 38.4818 120.141 39.4909 120.141 40.6367C120.141 41.7305 119.88 42.7787 119.359 43.7813C118.839 44.7839 118.122 45.6758 117.211 46.457C116.299 47.2253 115.225 47.8373 113.988 48.293C112.764 48.7617 111.443 48.9961 110.023 48.9961C108.435 48.9961 107.12 48.8203 106.078 48.4688C105.049 48.1302 104.229 47.7005 103.617 47.1797C103.018 46.6589 102.602 46.099 102.367 45.5C102.133 44.888 102.016 44.3216 102.016 43.8008C102.016 43.1628 102.113 42.5899 102.309 42.082C102.517 41.5612 102.79 41.099 103.129 40.6953C103.467 40.2787 103.845 39.9206 104.262 39.6211C104.691 39.3086 105.128 39.0482 105.57 38.8399C106.026 38.6185 106.462 38.4427 106.879 38.3125C107.309 38.1693 107.693 38.0651 108.031 38L108.227 38.9961C108.07 39.0482 107.784 39.1784 107.367 39.3867C106.964 39.582 106.54 39.875 106.098 40.2656C105.655 40.6432 105.264 41.1185 104.926 41.6914C104.587 42.2643 104.418 42.9414 104.418 43.7227C104.418 44.2565 104.529 44.7774 104.75 45.2852C104.984 45.793 105.329 46.2487 105.785 46.6524C106.241 47.056 106.801 47.3815 107.465 47.6289C108.129 47.8763 108.904 48 109.789 48C110.857 48 111.788 47.9024 112.582 47.707C113.389 47.4987 114.079 47.2318 114.652 46.9063C115.238 46.5807 115.714 46.2097 116.078 45.793C116.456 45.3633 116.749 44.9206 116.957 44.4649C117.178 44.0091 117.328 43.5599 117.406 43.1172C117.497 42.6615 117.543 42.2513 117.543 41.8867C117.543 40.8972 117.315 40.0313 116.859 39.2891C116.404 38.5339 115.798 37.8633 115.043 37.2774C114.301 36.6784 113.454 36.138 112.504 35.6563C111.553 35.1615 110.577 34.6732 109.574 34.1914C108.585 33.7097 107.615 33.2083 106.664 32.6875C105.714 32.1667 104.861 31.5742 104.105 30.9102C103.363 30.2461 102.764 29.4909 102.309 28.6445C101.853 27.7852 101.625 26.7826 101.625 25.6367C101.625 24.1003 101.944 22.694 102.582 21.418C103.22 20.1289 104.079 19.0287 105.16 18.1172C106.241 17.1927 107.491 16.4766 108.91 15.9688C110.342 15.461 111.846 15.207 113.422 15.207C114.763 15.207 115.909 15.3633 116.859 15.6758C117.81 15.9883 118.585 16.3985 119.184 16.9063C119.796 17.4141 120.238 17.9935 120.512 18.6445C120.798 19.2956 120.941 19.9597 120.941 20.6367C120.941 21.444 120.798 22.1797 120.512 22.8438C120.238 23.5078 119.9 24.1003 119.496 24.6211C119.105 25.1289 118.682 25.5586 118.227 25.9102C117.771 26.2487 117.367 26.4896 117.016 26.6328L116.43 25.832ZM134.867 43.1563C134.867 43.8985 134.932 44.5235 135.062 45.0313C135.193 45.5391 135.421 45.793 135.746 45.793C135.941 45.793 136.15 45.7018 136.371 45.5195C136.605 45.3242 136.872 45.0117 137.172 44.582C137.471 44.1524 137.81 43.599 138.188 42.9219C138.578 42.2318 139.021 41.3919 139.516 40.4024L140.102 39.1914L140.902 39.7969L140.316 41.0078C139.77 42.1016 139.255 43.0847 138.773 43.957C138.305 44.8164 137.855 45.5456 137.426 46.1445C136.996 46.7435 136.573 47.2057 136.156 47.5313C135.753 47.8438 135.349 48 134.945 48C134.516 48 134.151 47.8828 133.852 47.6485C133.565 47.4141 133.324 47.0951 133.129 46.6914C132.934 46.2748 132.784 45.7995 132.68 45.2656C132.576 44.7188 132.504 44.1393 132.465 43.5274C132.152 44.1524 131.807 44.7383 131.43 45.2852C131.052 45.819 130.655 46.2878 130.238 46.6914C129.835 47.0951 129.411 47.4141 128.969 47.6485C128.526 47.8828 128.083 48 127.641 48C126.99 48 126.358 47.8633 125.746 47.5899C125.134 47.3164 124.587 46.8998 124.105 46.3399C123.637 45.78 123.259 45.0768 122.973 44.2305C122.686 43.3711 122.543 42.362 122.543 41.2031C122.543 39.849 122.719 38.612 123.07 37.4922C123.422 36.3594 123.897 35.3893 124.496 34.582C125.095 33.7617 125.785 33.1302 126.566 32.6875C127.348 32.2318 128.168 32.0039 129.027 32.0039C129.548 32.0039 130.03 32.1211 130.473 32.3555C130.915 32.5899 131.299 32.8763 131.625 33.2149C131.964 33.5404 132.243 33.8919 132.465 34.2695C132.686 34.6341 132.836 34.9466 132.914 35.207L133.148 33.3125C133.174 33.0651 133.292 32.8568 133.5 32.6875C133.721 32.5182 133.962 32.388 134.223 32.2969C134.483 32.1927 134.737 32.1211 134.984 32.082C135.232 32.03 135.408 32.0039 135.512 32.0039C135.668 32.0039 135.772 32.03 135.824 32.082C135.876 32.1341 135.902 32.2383 135.902 32.3945C135.902 32.5899 135.844 32.987 135.727 33.586C135.622 34.1719 135.505 34.9271 135.375 35.8516C135.258 36.763 135.141 37.8373 135.023 39.0742C134.919 40.3112 134.867 41.6719 134.867 43.1563ZM132.719 38C132.719 37.4011 132.628 36.8151 132.445 36.2422C132.263 35.6563 132.016 35.1419 131.703 34.6992C131.391 34.2435 131.026 33.8789 130.609 33.6055C130.206 33.332 129.776 33.1953 129.32 33.1953C128.76 33.1953 128.233 33.3581 127.738 33.6836C127.257 33.9961 126.833 34.4453 126.469 35.0313C126.117 35.6042 125.837 36.3008 125.629 37.1211C125.421 37.9284 125.316 38.8203 125.316 39.7969C125.316 41.75 125.622 43.2409 126.234 44.2695C126.846 45.2852 127.66 45.793 128.676 45.793C129.118 45.793 129.574 45.6172 130.043 45.2656C130.525 44.9011 130.961 44.3867 131.352 43.7227C131.755 43.0456 132.081 42.2253 132.328 41.2617C132.589 40.2982 132.719 39.211 132.719 38ZM147.621 33.3516C147.257 33.3516 146.846 33.5143 146.391 33.8399C145.948 34.1654 145.499 34.5886 145.043 35.1094C144.587 35.6172 144.145 36.1901 143.715 36.8281C143.298 37.4662 142.934 38.0977 142.621 38.7227C142.582 39.8685 142.543 41.1185 142.504 42.4727C142.478 43.8268 142.465 45.2722 142.465 46.8086C142.465 47.0039 142.374 47.1797 142.191 47.336C142.022 47.4792 141.82 47.6029 141.586 47.707C141.352 47.7982 141.111 47.8698 140.863 47.9219C140.616 47.974 140.414 48 140.258 48C140.062 48 139.88 47.9414 139.711 47.8242C139.542 47.707 139.457 47.4466 139.457 47.043C139.457 46.8477 139.477 46.6068 139.516 46.3203C139.555 46.0208 139.607 45.7018 139.672 45.3633C139.724 45.0248 139.789 44.6797 139.867 44.3281C139.932 43.9636 139.997 43.625 140.062 43.3125V33.7617C140.062 33.5013 140.069 33.2995 140.082 33.1563C140.082 33 140.102 32.8828 140.141 32.8047C140.219 32.6224 140.355 32.4792 140.551 32.375C140.746 32.2708 140.954 32.1927 141.176 32.1406C141.397 32.0755 141.612 32.0365 141.82 32.0235C142.029 32.0104 142.191 32.0039 142.309 32.0039C142.53 32.0039 142.68 32.0625 142.758 32.1797C142.849 32.2969 142.895 32.5052 142.895 32.8047C142.895 32.7656 142.862 33.0847 142.797 33.7617C142.745 34.4388 142.699 35.4089 142.66 36.6719C143.051 36.0599 143.474 35.474 143.93 34.9141C144.385 34.3542 144.861 33.8594 145.355 33.4297C145.85 33 146.358 32.655 146.879 32.3945C147.413 32.1341 147.953 32.0039 148.5 32.0039C149.477 32.0039 150.193 32.3164 150.648 32.9414C151.104 33.5534 151.332 34.3867 151.332 35.4414C151.332 36.1055 151.286 36.8477 151.195 37.668C151.117 38.4753 151.02 39.3021 150.902 40.1485C150.798 40.9818 150.701 41.8021 150.609 42.6094C150.531 43.4037 150.492 44.1328 150.492 44.7969C150.492 45.6563 150.759 46.086 151.293 46.086C151.462 46.086 151.658 46.0013 151.879 45.832C152.113 45.6498 152.4 45.3177 152.738 44.836C153.09 44.3542 153.507 43.6966 153.988 42.8633C154.47 42.0169 155.043 40.9297 155.707 39.6016L155.902 39.1914L156.703 39.7969L156.508 40.207C155.727 41.7695 155.03 43.0521 154.418 44.0547C153.819 45.0573 153.272 45.8516 152.777 46.4375C152.283 47.0235 151.82 47.4336 151.391 47.668C150.961 47.8893 150.531 48 150.102 48C149.828 48 149.555 47.961 149.281 47.8828C149.008 47.8047 148.767 47.668 148.559 47.4727C148.35 47.2774 148.181 47.0169 148.051 46.6914C147.921 46.3529 147.855 45.9232 147.855 45.4024C147.855 44.6211 147.908 43.7422 148.012 42.7656C148.116 41.7891 148.233 40.8125 148.363 39.836C148.493 38.8594 148.611 37.9414 148.715 37.082C148.819 36.2097 148.871 35.5 148.871 34.9531C148.871 34.4714 148.767 34.0873 148.559 33.8008C148.35 33.5013 148.038 33.3516 147.621 33.3516ZM159.887 48C159.092 48 158.402 47.8307 157.816 47.4922C157.243 47.1537 156.768 46.6979 156.391 46.125C156.013 45.5391 155.733 44.8685 155.551 44.1133C155.368 43.3581 155.277 42.5573 155.277 41.711C155.277 40.9688 155.349 40.2136 155.492 39.4453C155.635 38.6771 155.837 37.9349 156.098 37.2188C156.371 36.4896 156.71 35.8125 157.113 35.1875C157.517 34.5495 157.979 33.9961 158.5 33.5274C159.021 33.0586 159.6 32.6875 160.238 32.4141C160.889 32.1406 161.586 32.0039 162.328 32.0039C163.174 32.0039 163.891 32.1927 164.477 32.5703C165.076 32.9479 165.557 33.4102 165.922 33.957C165.935 31.4961 166.059 29.3216 166.293 27.4336C166.527 25.5456 166.853 23.9636 167.27 22.6875C167.699 21.4115 168.207 20.4479 168.793 19.7969C169.379 19.1328 170.023 18.8008 170.727 18.8008C170.974 18.8008 171.195 18.8333 171.391 18.8985C171.599 18.9505 171.768 19.0547 171.898 19.211C172.042 19.3672 172.146 19.582 172.211 19.8555C172.289 20.1159 172.328 20.4544 172.328 20.8711C172.328 21.7305 172.243 22.7201 172.074 23.8399C171.905 24.9466 171.664 26.1576 171.352 27.4727C171.039 28.7748 170.655 30.168 170.199 31.6524C169.757 33.1237 169.262 34.6537 168.715 36.2422C168.728 37.6354 168.747 38.8399 168.773 39.8555C168.799 40.8711 168.832 41.7305 168.871 42.4336C168.923 43.1367 168.982 43.7097 169.047 44.1524C169.125 44.5951 169.21 44.9401 169.301 45.1875C169.405 45.4219 169.522 45.5847 169.652 45.6758C169.796 45.7539 169.952 45.793 170.121 45.793C170.421 45.793 170.72 45.6628 171.02 45.4024C171.332 45.1289 171.664 44.7318 172.016 44.211C172.367 43.6771 172.745 43.0261 173.148 42.2578C173.565 41.4896 174.021 40.6042 174.516 39.6016L174.73 39.1914L175.531 39.7969L175.316 40.207C174.561 41.7305 173.897 42.9935 173.324 43.9961C172.751 44.9857 172.224 45.78 171.742 46.3789C171.273 46.9779 170.824 47.4011 170.395 47.6485C169.965 47.8828 169.516 48 169.047 48C168.591 48 168.194 47.8893 167.855 47.668C167.53 47.4336 167.25 47.0755 167.016 46.5938C166.781 46.099 166.592 45.474 166.449 44.7188C166.306 43.9505 166.195 43.0326 166.117 41.9649C165.661 42.8763 165.193 43.7031 164.711 44.4453C164.229 45.1875 163.728 45.8255 163.207 46.3594C162.699 46.8802 162.165 47.2839 161.605 47.5703C161.046 47.8568 160.473 48 159.887 48ZM162.719 33C162.003 33 161.378 33.2214 160.844 33.6641C160.31 34.0938 159.867 34.6602 159.516 35.3633C159.164 36.0534 158.904 36.8347 158.734 37.707C158.565 38.5794 158.48 39.4518 158.48 40.3242C158.48 41.0404 158.533 41.7305 158.637 42.3945C158.754 43.0456 158.923 43.625 159.145 44.1328C159.379 44.6406 159.659 45.0443 159.984 45.3438C160.31 45.6432 160.688 45.793 161.117 45.793C161.534 45.793 161.938 45.6888 162.328 45.4805C162.732 45.2722 163.129 44.9401 163.52 44.4844C163.91 44.0156 164.307 43.4167 164.711 42.6875C165.115 41.9453 165.544 41.0469 166 39.9922C165.974 39.3672 165.954 38.7031 165.941 38C165.928 37.2839 165.922 36.5222 165.922 35.7149C165.635 34.8685 165.199 34.2044 164.613 33.7227C164.04 33.2409 163.409 33 162.719 33ZM170.922 21.5938C170.922 20.9948 170.85 20.5781 170.707 20.3438C170.577 20.1094 170.421 19.9922 170.238 19.9922C169.926 19.9922 169.672 20.2982 169.477 20.9102C169.281 21.5091 169.125 22.3229 169.008 23.3516C168.904 24.3802 168.826 25.5716 168.773 26.9258C168.734 28.28 168.715 29.7057 168.715 31.2031V33.3516C169.118 32.0365 169.464 30.8516 169.75 29.7969C170.036 28.7422 170.264 27.7591 170.434 26.8477C170.603 25.9362 170.727 25.0573 170.805 24.211C170.883 23.3646 170.922 22.4922 170.922 21.5938ZM174.555 39.6016L174.75 39.1914C174.945 38.8008 175.121 38.3972 175.277 37.9805C175.447 37.5638 175.59 37.1732 175.707 36.8086C175.824 36.431 175.915 36.099 175.98 35.8125C176.046 35.513 176.091 35.2852 176.117 35.1289C175.779 35.0899 175.453 35.0052 175.141 34.875C174.828 34.7448 174.555 34.569 174.32 34.3477C174.086 34.1263 173.904 33.8659 173.773 33.5664C173.63 33.2669 173.559 32.9284 173.559 32.5508C173.559 32.2513 173.611 31.9844 173.715 31.75C173.819 31.5156 173.962 31.3203 174.145 31.1641C174.314 31.0078 174.509 30.8906 174.73 30.8125C174.939 30.7214 175.16 30.6758 175.395 30.6758C175.707 30.6758 175.98 30.7409 176.215 30.8711C176.449 31.0013 176.645 31.1771 176.801 31.3985C176.957 31.6068 177.074 31.8542 177.152 32.1406C177.23 32.4141 177.27 32.7005 177.27 33C177.634 33 178.025 32.9479 178.441 32.8438C178.871 32.7396 179.301 32.6289 179.73 32.5117C180.16 32.3815 180.583 32.2643 181 32.1602C181.417 32.056 181.801 32.0039 182.152 32.0039C182.452 32.0039 182.693 32.069 182.875 32.1992C183.057 32.3164 183.148 32.5182 183.148 32.8047C183.148 33.013 183.083 33.3581 182.953 33.8399C182.836 34.3216 182.686 34.8815 182.504 35.5195C182.322 36.1576 182.12 36.8542 181.898 37.6094C181.69 38.3516 181.495 39.1068 181.312 39.875C181.13 40.6302 180.974 41.3659 180.844 42.082C180.727 42.7982 180.668 43.4362 180.668 43.9961C180.668 44.6992 180.746 45.1745 180.902 45.4219C181.059 45.6693 181.339 45.793 181.742 45.793C181.911 45.793 182.12 45.7214 182.367 45.5781C182.628 45.4219 182.94 45.1289 183.305 44.6992C183.669 44.2565 184.099 43.6315 184.594 42.8242C185.102 42.0039 185.688 40.9297 186.352 39.6016L186.547 39.1914L187.348 39.7969L187.152 40.207C186.371 41.7695 185.674 43.0521 185.062 44.0547C184.451 45.0573 183.884 45.8516 183.363 46.4375C182.855 47.0235 182.374 47.4336 181.918 47.668C181.462 47.8893 181.007 48 180.551 48C179.783 48 179.158 47.707 178.676 47.1211C178.194 46.5352 177.953 45.6302 177.953 44.4063C177.953 43.7422 178.044 43.0521 178.227 42.336C178.409 41.6198 178.637 40.9102 178.91 40.207C179.184 39.4909 179.49 38.7878 179.828 38.0977C180.167 37.4076 180.486 36.7565 180.785 36.1445C181.098 35.5195 181.378 34.9401 181.625 34.4063C181.872 33.8724 182.048 33.4037 182.152 33L182.035 32.8828C181.827 32.8828 181.547 32.9935 181.195 33.2149C180.844 33.4362 180.447 33.6901 180.004 33.9766C179.574 34.25 179.112 34.5104 178.617 34.7578C178.122 35.0052 177.621 35.155 177.113 35.207C177.087 35.3893 177.029 35.6563 176.938 36.0078C176.859 36.3594 176.749 36.75 176.605 37.1797C176.462 37.6094 176.299 38.0521 176.117 38.5078C175.935 38.9636 175.746 39.3932 175.551 39.7969L175.355 40.207L174.555 39.6016ZM175.512 31.7695C175.395 31.7695 175.297 31.8086 175.219 31.8867C175.141 31.9649 175.102 32.056 175.102 32.1602C175.102 32.3164 175.141 32.4531 175.219 32.5703C175.297 32.6745 175.395 32.7656 175.512 32.8438C175.629 32.9089 175.746 32.961 175.863 33C175.993 33.0261 176.104 33.0391 176.195 33.0391C176.195 32.6745 176.137 32.375 176.02 32.1406C175.902 31.8932 175.733 31.7695 175.512 31.7695ZM187.543 39.4063L187.348 39.7969L187.152 40.207L186.352 39.6016L186.547 39.1914C186.872 38.5274 187.139 37.8633 187.348 37.1992C187.569 36.5222 187.745 35.8906 187.875 35.3047C188.018 34.7188 188.135 34.2044 188.227 33.7617C188.318 33.319 188.409 33 188.5 32.8047C188.578 32.6485 188.689 32.5248 188.832 32.4336C188.988 32.3294 189.145 32.2448 189.301 32.1797C189.47 32.1146 189.626 32.069 189.77 32.043C189.926 32.0169 190.036 32.0039 190.102 32.0039C190.388 32.0039 190.577 32.0625 190.668 32.1797C190.772 32.2969 190.824 32.5052 190.824 32.8047C190.824 32.9479 190.792 33.306 190.727 33.8789C190.674 34.4388 190.609 35.1485 190.531 36.0078C190.466 36.8542 190.401 37.8112 190.336 38.8789C190.284 39.9336 190.258 41.0274 190.258 42.1602C190.258 42.9805 190.297 43.6315 190.375 44.1133C190.453 44.582 190.551 44.9336 190.668 45.168C190.798 45.4024 190.935 45.5521 191.078 45.6172C191.234 45.6823 191.391 45.7149 191.547 45.7149C191.755 45.7149 191.99 45.6237 192.25 45.4414C192.51 45.2591 192.816 44.9401 193.168 44.4844C193.52 44.0156 193.923 43.3906 194.379 42.6094C194.835 41.8151 195.368 40.8125 195.98 39.6016L196.195 39.1914L196.996 39.7969L196.781 40.207C196.286 41.1706 195.792 42.1211 195.297 43.0586C194.815 43.9961 194.32 44.8294 193.812 45.5586C193.318 46.2878 192.816 46.8802 192.309 47.336C191.801 47.7787 191.293 48 190.785 48C190.251 48 189.789 47.8958 189.398 47.6875C189.021 47.4662 188.702 47.1081 188.441 46.6133C188.194 46.1185 188.005 45.4675 187.875 44.6602C187.758 43.8399 187.699 42.8307 187.699 41.6328C187.699 41.2943 187.699 40.9427 187.699 40.5781C187.699 40.2005 187.712 39.8099 187.738 39.4063H187.543ZM191.547 28C191.547 28.4557 191.391 28.8399 191.078 29.1524C190.779 29.4518 190.401 29.6016 189.945 29.6016C189.503 29.6016 189.125 29.4518 188.812 29.1524C188.5 28.8399 188.344 28.4557 188.344 28C188.344 27.5573 188.5 27.1797 188.812 26.8672C189.125 26.5547 189.503 26.3985 189.945 26.3985C190.401 26.3985 190.779 26.5547 191.078 26.8672C191.391 27.1797 191.547 27.5573 191.547 28ZM203.715 33.3516C203.35 33.3516 202.94 33.5143 202.484 33.8399C202.042 34.1654 201.592 34.5886 201.137 35.1094C200.681 35.6172 200.238 36.1901 199.809 36.8281C199.392 37.4662 199.027 38.0977 198.715 38.7227C198.676 39.8685 198.637 41.1185 198.598 42.4727C198.572 43.8268 198.559 45.2722 198.559 46.8086C198.559 47.0039 198.467 47.1797 198.285 47.336C198.116 47.4792 197.914 47.6029 197.68 47.707C197.445 47.7982 197.204 47.8698 196.957 47.9219C196.71 47.974 196.508 48 196.352 48C196.156 48 195.974 47.9414 195.805 47.8242C195.635 47.707 195.551 47.4466 195.551 47.043C195.551 46.8477 195.57 46.6068 195.609 46.3203C195.648 46.0208 195.701 45.7018 195.766 45.3633C195.818 45.0248 195.883 44.6797 195.961 44.3281C196.026 43.9636 196.091 43.625 196.156 43.3125V33.7617C196.156 33.5013 196.163 33.2995 196.176 33.1563C196.176 33 196.195 32.8828 196.234 32.8047C196.312 32.6224 196.449 32.4792 196.645 32.375C196.84 32.2708 197.048 32.1927 197.27 32.1406C197.491 32.0755 197.706 32.0365 197.914 32.0235C198.122 32.0104 198.285 32.0039 198.402 32.0039C198.624 32.0039 198.773 32.0625 198.852 32.1797C198.943 32.2969 198.988 32.5052 198.988 32.8047C198.988 32.7656 198.956 33.0847 198.891 33.7617C198.839 34.4388 198.793 35.4089 198.754 36.6719C199.145 36.0599 199.568 35.474 200.023 34.9141C200.479 34.3542 200.954 33.8594 201.449 33.4297C201.944 33 202.452 32.655 202.973 32.3945C203.507 32.1341 204.047 32.0039 204.594 32.0039C205.57 32.0039 206.286 32.3164 206.742 32.9414C207.198 33.5534 207.426 34.3867 207.426 35.4414C207.426 36.1055 207.38 36.8477 207.289 37.668C207.211 38.4753 207.113 39.3021 206.996 40.1485C206.892 40.9818 206.794 41.8021 206.703 42.6094C206.625 43.4037 206.586 44.1328 206.586 44.7969C206.586 45.6563 206.853 46.086 207.387 46.086C207.556 46.086 207.751 46.0013 207.973 45.832C208.207 45.6498 208.493 45.3177 208.832 44.836C209.184 44.3542 209.6 43.6966 210.082 42.8633C210.564 42.0169 211.137 40.9297 211.801 39.6016L211.996 39.1914L212.797 39.7969L212.602 40.207C211.82 41.7695 211.124 43.0521 210.512 44.0547C209.913 45.0573 209.366 45.8516 208.871 46.4375C208.376 47.0235 207.914 47.4336 207.484 47.668C207.055 47.8893 206.625 48 206.195 48C205.922 48 205.648 47.961 205.375 47.8828C205.102 47.8047 204.861 47.668 204.652 47.4727C204.444 47.2774 204.275 47.0169 204.145 46.6914C204.014 46.3529 203.949 45.9232 203.949 45.4024C203.949 44.6211 204.001 43.7422 204.105 42.7656C204.21 41.7891 204.327 40.8125 204.457 39.836C204.587 38.8594 204.704 37.9414 204.809 37.082C204.913 36.2097 204.965 35.5 204.965 34.9531C204.965 34.4714 204.861 34.0873 204.652 33.8008C204.444 33.5013 204.132 33.3516 203.715 33.3516ZM214.613 41.2031C214.613 41.8412 214.594 42.5182 214.555 43.2344C214.516 43.9375 214.431 44.6472 214.301 45.3633C214.184 46.0664 214.008 46.7565 213.773 47.4336C213.539 48.0977 213.22 48.7162 212.816 49.2891L211.332 48.8399C211.658 47.7461 211.853 46.6003 211.918 45.4024C211.983 44.2044 212.016 43.0065 212.016 41.8086C212.016 40.5065 211.977 39.2044 211.898 37.9024C211.807 36.6003 211.71 35.2982 211.605 33.9961C211.488 32.681 211.391 31.3594 211.312 30.0313C211.221 28.7031 211.176 27.362 211.176 26.0078C211.176 25.1875 211.267 24.4714 211.449 23.8594C211.618 23.2474 211.846 22.7396 212.133 22.336C212.419 21.9323 212.738 21.6328 213.09 21.4375C213.441 21.2292 213.793 21.125 214.145 21.125C214.639 21.125 215.03 21.3008 215.316 21.6524C215.616 22.0039 215.837 22.4792 215.98 23.0781C216.124 23.6771 216.195 24.3737 216.195 25.168C216.208 25.9623 216.176 26.8021 216.098 27.6875C216.02 28.5729 215.909 29.4779 215.766 30.4024C215.622 31.3268 215.466 32.2253 215.297 33.0977C215.128 33.9701 214.958 34.7839 214.789 35.5391C214.633 36.2943 214.496 36.9388 214.379 37.4727C214.379 37.5768 214.385 37.6875 214.398 37.8047C214.411 37.9089 214.418 38.013 214.418 38.1172C214.691 37.5052 215.023 36.8477 215.414 36.1445C215.818 35.4284 216.267 34.7643 216.762 34.1524C217.27 33.5404 217.816 33.0326 218.402 32.6289C219.001 32.2123 219.633 32.0039 220.297 32.0039C221.273 32.0039 222.009 32.3294 222.504 32.9805C222.999 33.6315 223.246 34.569 223.246 35.793C223.246 36.6393 223.201 37.4531 223.109 38.2344C223.018 39.0156 222.914 39.7708 222.797 40.5C222.693 41.2162 222.595 41.9128 222.504 42.5899C222.413 43.2669 222.367 43.9375 222.367 44.6016C222.367 45.3958 222.569 45.793 222.973 45.793C223.168 45.793 223.415 45.6237 223.715 45.2852C224.027 44.9336 224.372 44.4714 224.75 43.8985C225.128 43.3255 225.525 42.668 225.941 41.9258C226.358 41.1836 226.768 40.4089 227.172 39.6016L227.367 39.1914L228.168 39.7969L227.973 40.207C227.517 41.1055 227.042 42.0169 226.547 42.9414C226.052 43.8659 225.544 44.7057 225.023 45.461C224.503 46.2031 223.969 46.8151 223.422 47.2969C222.888 47.7656 222.354 48 221.82 48C221.586 48 221.345 47.961 221.098 47.8828C220.863 47.8047 220.648 47.668 220.453 47.4727C220.258 47.2774 220.095 47.0169 219.965 46.6914C219.835 46.3529 219.77 45.9232 219.77 45.4024C219.77 44.8815 219.796 44.3151 219.848 43.7031C219.9 43.0912 219.958 42.4662 220.023 41.8281C220.102 41.1771 220.186 40.5326 220.277 39.8945C220.368 39.2565 220.447 38.6576 220.512 38.0977C220.59 37.5378 220.655 37.0365 220.707 36.5938C220.759 36.138 220.785 35.7669 220.785 35.4805C220.785 34.7383 220.681 34.1979 220.473 33.8594C220.264 33.5208 219.952 33.3516 219.535 33.3516C219.014 33.3516 218.513 33.5794 218.031 34.0352C217.549 34.4909 217.094 35.0638 216.664 35.7539C216.247 36.431 215.863 37.1667 215.512 37.961C215.16 38.7422 214.848 39.4649 214.574 40.1289C214.574 40.3242 214.581 40.5195 214.594 40.7149C214.607 40.8972 214.613 41.0599 214.613 41.2031ZM213.344 24.4844C213.344 25.0182 213.363 25.6693 213.402 26.4375C213.454 27.1927 213.513 28.013 213.578 28.8985C213.656 29.7839 213.734 30.7083 213.812 31.6719C213.904 32.6354 213.995 33.586 214.086 34.5235C214.229 33.7943 214.372 32.9935 214.516 32.1211C214.659 31.2357 214.783 30.3503 214.887 29.4649C215.004 28.5664 215.089 27.694 215.141 26.8477C215.206 26.0013 215.219 25.2526 215.18 24.6016C215.154 23.9505 215.069 23.4297 214.926 23.0391C214.783 22.6354 214.574 22.4336 214.301 22.4336C214.053 22.4336 213.832 22.5833 213.637 22.8828C213.441 23.1823 213.344 23.7162 213.344 24.4844ZM239.203 43.1563C239.203 43.8985 239.268 44.5235 239.398 45.0313C239.529 45.5391 239.757 45.793 240.082 45.793C240.277 45.793 240.486 45.7018 240.707 45.5195C240.941 45.3242 241.208 45.0117 241.508 44.582C241.807 44.1524 242.146 43.599 242.523 42.9219C242.914 42.2318 243.357 41.3919 243.852 40.4024L244.438 39.1914L245.238 39.7969L244.652 41.0078C244.105 42.1016 243.591 43.0847 243.109 43.957C242.641 44.8164 242.191 45.5456 241.762 46.1445C241.332 46.7435 240.909 47.2057 240.492 47.5313C240.089 47.8438 239.685 48 239.281 48C238.852 48 238.487 47.8828 238.188 47.6485C237.901 47.4141 237.66 47.0951 237.465 46.6914C237.27 46.2748 237.12 45.7995 237.016 45.2656C236.911 44.7188 236.84 44.1393 236.801 43.5274C236.488 44.1524 236.143 44.7383 235.766 45.2852C235.388 45.819 234.991 46.2878 234.574 46.6914C234.171 47.0951 233.747 47.4141 233.305 47.6485C232.862 47.8828 232.419 48 231.977 48C231.326 48 230.694 47.8633 230.082 47.5899C229.47 47.3164 228.923 46.8998 228.441 46.3399C227.973 45.78 227.595 45.0768 227.309 44.2305C227.022 43.3711 226.879 42.362 226.879 41.2031C226.879 39.849 227.055 38.612 227.406 37.4922C227.758 36.3594 228.233 35.3893 228.832 34.582C229.431 33.7617 230.121 33.1302 230.902 32.6875C231.684 32.2318 232.504 32.0039 233.363 32.0039C233.884 32.0039 234.366 32.1211 234.809 32.3555C235.251 32.5899 235.635 32.8763 235.961 33.2149C236.299 33.5404 236.579 33.8919 236.801 34.2695C237.022 34.6341 237.172 34.9466 237.25 35.207L237.484 33.3125C237.51 33.0651 237.628 32.8568 237.836 32.6875C238.057 32.5182 238.298 32.388 238.559 32.2969C238.819 32.1927 239.073 32.1211 239.32 32.082C239.568 32.03 239.743 32.0039 239.848 32.0039C240.004 32.0039 240.108 32.03 240.16 32.082C240.212 32.1341 240.238 32.2383 240.238 32.3945C240.238 32.5899 240.18 32.987 240.062 33.586C239.958 34.1719 239.841 34.9271 239.711 35.8516C239.594 36.763 239.477 37.8373 239.359 39.0742C239.255 40.3112 239.203 41.6719 239.203 43.1563ZM237.055 38C237.055 37.4011 236.964 36.8151 236.781 36.2422C236.599 35.6563 236.352 35.1419 236.039 34.6992C235.727 34.2435 235.362 33.8789 234.945 33.6055C234.542 33.332 234.112 33.1953 233.656 33.1953C233.096 33.1953 232.569 33.3581 232.074 33.6836C231.592 33.9961 231.169 34.4453 230.805 35.0313C230.453 35.6042 230.173 36.3008 229.965 37.1211C229.757 37.9284 229.652 38.8203 229.652 39.7969C229.652 41.75 229.958 43.2409 230.57 44.2695C231.182 45.2852 231.996 45.793 233.012 45.793C233.454 45.793 233.91 45.6172 234.379 45.2656C234.861 44.9011 235.297 44.3867 235.688 43.7227C236.091 43.0456 236.417 42.2253 236.664 41.2617C236.924 40.2982 237.055 39.211 237.055 38Z" fill="#1C1A19"/>
<defs>
<clipPath id="clip0">
<rect width="52" height="52" fill="white" transform="matrix(-1 0 0 1 52 20.5149)"/>
</clipPath>
</defs>
</svg>
